<svg width="226" height="48" viewBox="0 0 226 48" fill="none" xmlns="http://www.w3.org/2000/svg">
<path d="M0 11.25C0 5.0368 5.0368 0 11.25 0H36.75C42.9632 0 48 5.0368 48 11.25V36.75C48 42.9632 42.9632 48 36.75 48H11.25C5.0368 48 0 42.9632 0 36.75V11.25Z" fill="#E53935"/>
<g filter="url(#filter0_d_12_264)">
<path d="M24.0154 39.804C19.4731 39.7841 15.3252 37.4064 13.274 33.6464C10.876 29.5132 11.1331 24.4895 13.9423 20.5855L22.1142 9.25305C23.0496 7.95578 24.981 7.95587 25.9164 9.25323L34.0888 20.5886C36.8966 24.492 37.1537 29.514 34.757 33.6464C32.7059 37.4064 28.5577 39.7841 24.0154 39.804Z" fill="white"/>
</g>
<path d="M34.7604 29.3789C32.7244 33.1506 28.5635 35.5328 24.0122 35.5328C19.461 35.5328 15.3001 33.1506 13.2641 29.3789C12.5714 28.1561 12.0971 26.8371 11.8595 25.4738C11.3075 28.3035 11.804 31.2231 13.2688 33.7586C15.3053 37.5296 19.4659 39.9113 24.0166 39.9113C28.5676 39.9113 32.7282 37.5296 34.7648 33.7586C36.2279 31.2226 36.7228 28.303 36.1694 25.4738C35.9304 26.8373 35.4545 28.1564 34.7604 29.3789Z" fill="#E9E9E9"/>
<path d="M25.1342 28.3905C25.1342 29.1064 24.5539 29.6867 23.8381 29.6867C23.1223 29.6867 22.542 29.1064 22.542 28.3905V27.069H21.2585C20.5357 27.069 19.9497 26.483 19.9497 25.7601C19.9497 25.0373 20.5357 24.4513 21.2585 24.4513H22.542V23.1298C22.542 22.4139 23.1223 21.8336 23.8381 21.8336C24.5539 21.8336 25.1342 22.4139 25.1342 23.1298V24.4513H26.4177C27.1405 24.4513 27.7265 25.0373 27.7265 25.7601C27.7265 26.483 27.1405 27.069 26.4177 27.069H25.1342V28.3905Z" fill="#E53935"/>
<path d="M63.58 37.5V33.9H70.816C72.088 33.9 73.072 33.504 73.768 32.712C74.464 31.92 74.812 31.008 74.812 29.976C74.812 29.28 74.656 28.632 74.344 28.032C74.032 27.432 73.576 26.952 72.976 26.592C72.376 26.232 71.656 26.052 70.816 26.052H63.58V22.452H70.204C71.284 22.452 72.148 22.176 72.796 21.624C73.444 21.072 73.768 20.256 73.768 19.176C73.768 18.096 73.444 17.28 72.796 16.728C72.148 16.176 71.284 15.9 70.204 15.9H63.58V12.3H70.312C72.016 12.3 73.432 12.612 74.56 13.236C75.688 13.86 76.528 14.664 77.08 15.648C77.632 16.632 77.908 17.688 77.908 18.816C77.908 20.136 77.536 21.3 76.792 22.308C76.072 23.316 75.004 24.132 73.588 24.756L73.912 23.46C75.496 24.108 76.732 25.02 77.62 26.196C78.508 27.372 78.952 28.752 78.952 30.336C78.952 31.632 78.628 32.82 77.98 33.9C77.356 34.98 76.42 35.856 75.172 36.528C73.948 37.176 72.436 37.5 70.636 37.5H63.58ZM60.736 37.5V12.3H64.876V37.5H60.736ZM80.7905 37.5V11.58H84.7505V37.5H80.7905ZM95.2777 37.86C93.5977 37.86 92.0737 37.464 90.7057 36.672C89.3377 35.856 88.2457 34.764 87.4297 33.396C86.6377 32.028 86.2417 30.504 86.2417 28.824C86.2417 27.144 86.6377 25.632 87.4297 24.288C88.2457 22.944 89.3377 21.876 90.7057 21.084C92.0737 20.268 93.5977 19.86 95.2777 19.86C96.9817 19.86 98.5177 20.256 99.8857 21.048C101.254 21.84 102.334 22.92 103.126 24.288C103.942 25.632 104.35 27.144 104.35 28.824C104.35 30.504 103.942 32.028 103.126 33.396C102.334 34.764 101.254 35.856 99.8857 36.672C98.5177 37.464 96.9817 37.86 95.2777 37.86ZM95.2777 34.044C96.2617 34.044 97.1257 33.828 97.8697 33.396C98.6377 32.94 99.2257 32.316 99.6337 31.524C100.066 30.732 100.282 29.832 100.282 28.824C100.282 27.816 100.066 26.928 99.6337 26.16C99.2017 25.392 98.6137 24.792 97.8697 24.36C97.1257 23.904 96.2617 23.676 95.2777 23.676C94.3177 23.676 93.4537 23.904 92.6857 24.36C91.9417 24.792 91.3537 25.392 90.9217 26.16C90.5137 26.928 90.3097 27.816 90.3097 28.824C90.3097 29.832 90.5137 30.732 90.9217 31.524C91.3537 32.316 91.9417 32.94 92.6857 33.396C93.4537 33.828 94.3177 34.044 95.2777 34.044ZM113.763 37.86C112.083 37.86 110.559 37.464 109.191 36.672C107.823 35.856 106.731 34.764 105.915 33.396C105.123 32.028 104.727 30.504 104.727 28.824C104.727 27.144 105.123 25.632 105.915 24.288C106.731 22.944 107.823 21.876 109.191 21.084C110.559 20.268 112.083 19.86 113.763 19.86C115.467 19.86 117.003 20.256 118.371 21.048C119.739 21.84 120.819 22.92 121.611 24.288C122.427 25.632 122.835 27.144 122.835 28.824C122.835 30.504 122.427 32.028 121.611 33.396C120.819 34.764 119.739 35.856 118.371 36.672C117.003 37.464 115.467 37.86 113.763 37.86ZM113.763 34.044C114.747 34.044 115.611 33.828 116.355 33.396C117.123 32.94 117.711 32.316 118.119 31.524C118.551 30.732 118.767 29.832 118.767 28.824C118.767 27.816 118.551 26.928 118.119 26.16C117.687 25.392 117.099 24.792 116.355 24.36C115.611 23.904 114.747 23.676 113.763 23.676C112.803 23.676 111.939 23.904 111.171 24.36C110.427 24.792 109.839 25.392 109.407 26.16C108.999 26.928 108.795 27.816 108.795 28.824C108.795 29.832 108.999 30.732 109.407 31.524C109.839 32.316 110.427 32.94 111.171 33.396C111.939 33.828 112.803 34.044 113.763 34.044ZM131.564 37.86C130.004 37.86 128.588 37.464 127.316 36.672C126.068 35.88 125.072 34.812 124.328 33.468C123.608 32.1 123.248 30.576 123.248 28.896C123.248 27.192 123.608 25.668 124.328 24.324C125.072 22.956 126.068 21.876 127.316 21.084C128.588 20.268 130.004 19.86 131.564 19.86C132.884 19.86 134.048 20.148 135.056 20.724C136.088 21.276 136.904 22.044 137.504 23.028C138.104 24.012 138.404 25.128 138.404 26.376V31.344C138.404 32.592 138.104 33.708 137.504 34.692C136.928 35.676 136.124 36.456 135.092 37.032C134.06 37.584 132.884 37.86 131.564 37.86ZM132.212 34.116C133.196 34.116 134.048 33.9 134.768 33.468C135.512 33.012 136.088 32.388 136.496 31.596C136.904 30.804 137.108 29.892 137.108 28.86C137.108 27.828 136.904 26.916 136.496 26.124C136.088 25.332 135.512 24.72 134.768 24.288C134.048 23.832 133.196 23.604 132.212 23.604C131.252 23.604 130.4 23.832 129.656 24.288C128.936 24.72 128.36 25.332 127.928 26.124C127.52 26.916 127.316 27.828 127.316 28.86C127.316 29.892 127.52 30.804 127.928 31.596C128.36 32.388 128.936 33.012 129.656 33.468C130.4 33.9 131.252 34.116 132.212 34.116ZM140.816 37.5H136.856V32.856L137.54 28.644L136.856 24.468V11.58H140.816V37.5ZM148.991 37.68L141.611 20.22H145.967L151.007 33.036H149.747L155.075 20.22H159.467L151.439 37.68H148.991ZM143.843 44.7L149.207 33.648L151.439 37.68L148.235 44.7H143.843ZM163.299 37.5L173.667 12.3H176.547L186.843 37.5H182.379L174.315 17.088H175.827L167.691 37.5H163.299ZM168.411 32.64V29.04H181.767V32.64H168.411ZM197.36 37.86C196.04 37.86 194.864 37.584 193.832 37.032C192.8 36.456 191.984 35.676 191.384 34.692C190.808 33.708 190.52 32.592 190.52 31.344V26.376C190.52 25.128 190.82 24.012 191.42 23.028C192.02 22.044 192.836 21.276 193.868 20.724C194.9 20.148 196.064 19.86 197.36 19.86C198.92 19.86 200.324 20.268 201.572 21.084C202.844 21.876 203.84 22.956 204.56 24.324C205.304 25.668 205.676 27.192 205.676 28.896C205.676 30.576 205.304 32.1 204.56 33.468C203.84 34.812 202.844 35.88 201.572 36.672C200.324 37.464 198.92 37.86 197.36 37.86ZM188.108 44.7V20.22H192.068V24.864L191.384 29.076L192.068 33.252V44.7H188.108ZM196.712 34.116C197.672 34.116 198.512 33.9 199.232 33.468C199.976 33.012 200.552 32.388 200.96 31.596C201.392 30.804 201.608 29.892 201.608 28.86C201.608 27.828 201.392 26.916 200.96 26.124C200.552 25.332 199.976 24.72 199.232 24.288C198.512 23.832 197.672 23.604 196.712 23.604C195.752 23.604 194.9 23.832 194.156 24.288C193.412 24.72 192.836 25.332 192.428 26.124C192.02 26.916 191.816 27.828 191.816 28.86C191.816 29.892 192.02 30.804 192.428 31.596C192.836 32.388 193.412 33.012 194.156 33.468C194.9 33.9 195.752 34.116 196.712 34.116ZM216.443 37.86C215.123 37.86 213.947 37.584 212.915 37.032C211.883 36.456 211.067 35.676 210.467 34.692C209.891 33.708 209.603 32.592 209.603 31.344V26.376C209.603 25.128 209.903 24.012 210.503 23.028C211.103 22.044 211.919 21.276 212.951 20.724C213.983 20.148 215.147 19.86 216.443 19.86C218.003 19.86 219.407 20.268 220.655 21.084C221.927 21.876 222.923 22.956 223.643 24.324C224.387 25.668 224.759 27.192 224.759 28.896C224.759 30.576 224.387 32.1 223.643 33.468C222.923 34.812 221.927 35.88 220.655 36.672C219.407 37.464 218.003 37.86 216.443 37.86ZM207.191 44.7V20.22H211.151V24.864L210.467 29.076L211.151 33.252V44.7H207.191ZM215.795 34.116C216.755 34.116 217.595 33.9 218.315 33.468C219.059 33.012 219.635 32.388 220.043 31.596C220.475 30.804 220.691 29.892 220.691 28.86C220.691 27.828 220.475 26.916 220.043 26.124C219.635 25.332 219.059 24.72 218.315 24.288C217.595 23.832 216.755 23.604 215.795 23.604C214.835 23.604 213.983 23.832 213.239 24.288C212.495 24.72 211.919 25.332 211.511 26.124C211.103 26.916 210.899 27.828 210.899 28.86C210.899 29.892 211.103 30.804 211.511 31.596C211.919 32.388 212.495 33.012 213.239 33.468C213.983 33.9 214.835 34.116 215.795 34.116Z" fill="white"/>
<defs>
<filter id="filter0_d_12_264" x="-48.36" y="-47.7198" width="144.75" height="151.524" filterUnits="userSpaceOnUse" color-interpolation-filters="sRGB">
<feFlood flood-opacity="0" result="BackgroundImageFix"/>
<feColorMatrix in="SourceAlpha" type="matrix" values="0 0 0 0 0 0 0 0 0 0 0 0 0 0 0 0 0 0 127 0" result="hardAlpha"/>
<feOffset dy="4"/>
<feGaussianBlur stdDeviation="30"/>
<feColorMatrix type="matrix" values="0 0 0 0 0.898039 0 0 0 0 0.223529 0 0 0 0 0.207843 0 0 0 0.5 0"/>
<feBlend mode="normal" in2="BackgroundImageFix" result="effect1_dropShadow_12_264"/>
<feBlend mode="normal" in="SourceGraphic" in2="effect1_dropShadow_12_264" result="shape"/>
</filter>
</defs>
</svg>
