<svg width="275" height="152" viewBox="0 0 275 152" fill="none" xmlns="http://www.w3.org/2000/svg">
<path d="M49 59.25C49 53.0368 54.0368 48 60.25 48H85.75C91.9632 48 97 53.0368 97 59.25V84.75C97 90.9632 91.9632 96 85.75 96H60.25C54.0368 96 49 90.9632 49 84.75V59.25Z" fill="#E53935"/>
<g filter="url(#filter0_d_12_264)">
<path d="M73.0154 87.804C68.4731 87.7841 64.3252 85.4064 62.274 81.6464C59.876 77.5132 60.1331 72.4895 62.9423 68.5855L71.1142 57.2531C72.0496 55.9558 73.981 55.9559 74.9164 57.2532L83.0888 68.5886C85.8966 72.492 86.1537 77.514 83.757 81.6464C81.7059 85.4064 77.5577 87.7841 73.0154 87.804Z" fill="white"/>
</g>
<path d="M83.7604 77.3789C81.7244 81.1506 77.5635 83.5328 73.0122 83.5328C68.461 83.5328 64.3001 81.1506 62.2641 77.3789C61.5714 76.1561 61.0971 74.8371 60.8595 73.4738C60.3075 76.3035 60.804 79.2231 62.2688 81.7586C64.3053 85.5296 68.4659 87.9113 73.0166 87.9113C77.5676 87.9113 81.7282 85.5296 83.7648 81.7586C85.2279 79.2226 85.7228 76.303 85.1694 73.4738C84.9304 74.8373 84.4545 76.1564 83.7604 77.3789Z" fill="#E9E9E9"/>
<path d="M74.1342 76.3905C74.1342 77.1064 73.5539 77.6867 72.8381 77.6867C72.1223 77.6867 71.542 77.1064 71.542 76.3905V75.069H70.2585C69.5357 75.069 68.9497 74.483 68.9497 73.7601C68.9497 73.0373 69.5357 72.4513 70.2585 72.4513H71.542V71.1298C71.542 70.4139 72.1223 69.8336 72.8381 69.8336C73.5539 69.8336 74.1342 70.4139 74.1342 71.1298V72.4513H75.4177C76.1405 72.4513 76.7265 73.0373 76.7265 73.7601C76.7265 74.483 76.1405 75.069 75.4177 75.069H74.1342V76.3905Z" fill="#E53935"/>
<path d="M112.58 85.5V81.9H119.816C121.088 81.9 122.072 81.504 122.768 80.712C123.464 79.92 123.812 79.008 123.812 77.976C123.812 77.28 123.656 76.632 123.344 76.032C123.032 75.432 122.576 74.952 121.976 74.592C121.376 74.232 120.656 74.052 119.816 74.052H112.58V70.452H119.204C120.284 70.452 121.148 70.176 121.796 69.624C122.444 69.072 122.768 68.256 122.768 67.176C122.768 66.096 122.444 65.28 121.796 64.728C121.148 64.176 120.284 63.9 119.204 63.9H112.58V60.3H119.312C121.016 60.3 122.432 60.612 123.56 61.236C124.688 61.86 125.528 62.664 126.08 63.648C126.632 64.632 126.908 65.688 126.908 66.816C126.908 68.136 126.536 69.3 125.792 70.308C125.072 71.316 124.004 72.132 122.588 72.756L122.912 71.46C124.496 72.108 125.732 73.02 126.62 74.196C127.508 75.372 127.952 76.752 127.952 78.336C127.952 79.632 127.628 80.82 126.98 81.9C126.356 82.98 125.42 83.856 124.172 84.528C122.948 85.176 121.436 85.5 119.636 85.5H112.58ZM109.736 85.5V60.3H113.876V85.5H109.736ZM129.791 85.5V59.58H133.751V85.5H129.791ZM144.278 85.86C142.598 85.86 141.074 85.464 139.706 84.672C138.338 83.856 137.246 82.764 136.43 81.396C135.638 80.028 135.242 78.504 135.242 76.824C135.242 75.144 135.638 73.632 136.43 72.288C137.246 70.944 138.338 69.876 139.706 69.084C141.074 68.268 142.598 67.86 144.278 67.86C145.982 67.86 147.518 68.256 148.886 69.048C150.254 69.84 151.334 70.92 152.126 72.288C152.942 73.632 153.35 75.144 153.35 76.824C153.35 78.504 152.942 80.028 152.126 81.396C151.334 82.764 150.254 83.856 148.886 84.672C147.518 85.464 145.982 85.86 144.278 85.86ZM144.278 82.044C145.262 82.044 146.126 81.828 146.87 81.396C147.638 80.94 148.226 80.316 148.634 79.524C149.066 78.732 149.282 77.832 149.282 76.824C149.282 75.816 149.066 74.928 148.634 74.16C148.202 73.392 147.614 72.792 146.87 72.36C146.126 71.904 145.262 71.676 144.278 71.676C143.318 71.676 142.454 71.904 141.686 72.36C140.942 72.792 140.354 73.392 139.922 74.16C139.514 74.928 139.31 75.816 139.31 76.824C139.31 77.832 139.514 78.732 139.922 79.524C140.354 80.316 140.942 80.94 141.686 81.396C142.454 81.828 143.318 82.044 144.278 82.044ZM162.763 85.86C161.083 85.86 159.559 85.464 158.191 84.672C156.823 83.856 155.731 82.764 154.915 81.396C154.123 80.028 153.727 78.504 153.727 76.824C153.727 75.144 154.123 73.632 154.915 72.288C155.731 70.944 156.823 69.876 158.191 69.084C159.559 68.268 161.083 67.86 162.763 67.86C164.467 67.86 166.003 68.256 167.371 69.048C168.739 69.84 169.819 70.92 170.611 72.288C171.427 73.632 171.835 75.144 171.835 76.824C171.835 78.504 171.427 80.028 170.611 81.396C169.819 82.764 168.739 83.856 167.371 84.672C166.003 85.464 164.467 85.86 162.763 85.86ZM162.763 82.044C163.747 82.044 164.611 81.828 165.355 81.396C166.123 80.94 166.711 80.316 167.119 79.524C167.551 78.732 167.767 77.832 167.767 76.824C167.767 75.816 167.551 74.928 167.119 74.16C166.687 73.392 166.099 72.792 165.355 72.36C164.611 71.904 163.747 71.676 162.763 71.676C161.803 71.676 160.939 71.904 160.171 72.36C159.427 72.792 158.839 73.392 158.407 74.16C157.999 74.928 157.795 75.816 157.795 76.824C157.795 77.832 157.999 78.732 158.407 79.524C158.839 80.316 159.427 80.94 160.171 81.396C160.939 81.828 161.803 82.044 162.763 82.044ZM180.564 85.86C179.004 85.86 177.588 85.464 176.316 84.672C175.068 83.88 174.072 82.812 173.328 81.468C172.608 80.1 172.248 78.576 172.248 76.896C172.248 75.192 172.608 73.668 173.328 72.324C174.072 70.956 175.068 69.876 176.316 69.084C177.588 68.268 179.004 67.86 180.564 67.86C181.884 67.86 183.048 68.148 184.056 68.724C185.088 69.276 185.904 70.044 186.504 71.028C187.104 72.012 187.404 73.128 187.404 74.376V79.344C187.404 80.592 187.104 81.708 186.504 82.692C185.928 83.676 185.124 84.456 184.092 85.032C183.06 85.584 181.884 85.86 180.564 85.86ZM181.212 82.116C182.196 82.116 183.048 81.9 183.768 81.468C184.512 81.012 185.088 80.388 185.496 79.596C185.904 78.804 186.108 77.892 186.108 76.86C186.108 75.828 185.904 74.916 185.496 74.124C185.088 73.332 184.512 72.72 183.768 72.288C183.048 71.832 182.196 71.604 181.212 71.604C180.252 71.604 179.4 71.832 178.656 72.288C177.936 72.72 177.36 73.332 176.928 74.124C176.52 74.916 176.316 75.828 176.316 76.86C176.316 77.892 176.52 78.804 176.928 79.596C177.36 80.388 177.936 81.012 178.656 81.468C179.4 81.9 180.252 82.116 181.212 82.116ZM189.816 85.5H185.856V80.856L186.54 76.644L185.856 72.468V59.58H189.816V85.5ZM197.991 85.68L190.611 68.22H194.967L200.007 81.036H198.747L204.075 68.22H208.467L200.439 85.68H197.991ZM192.843 92.7L198.207 81.648L200.439 85.68L197.235 92.7H192.843ZM212.299 85.5L222.667 60.3H225.547L235.843 85.5H231.379L223.315 65.088H224.827L216.691 85.5H212.299ZM217.411 80.64V77.04H230.767V80.64H217.411ZM246.36 85.86C245.04 85.86 243.864 85.584 242.832 85.032C241.8 84.456 240.984 83.676 240.384 82.692C239.808 81.708 239.52 80.592 239.52 79.344V74.376C239.52 73.128 239.82 72.012 240.42 71.028C241.02 70.044 241.836 69.276 242.868 68.724C243.9 68.148 245.064 67.86 246.36 67.86C247.92 67.86 249.324 68.268 250.572 69.084C251.844 69.876 252.84 70.956 253.56 72.324C254.304 73.668 254.676 75.192 254.676 76.896C254.676 78.576 254.304 80.1 253.56 81.468C252.84 82.812 251.844 83.88 250.572 84.672C249.324 85.464 247.92 85.86 246.36 85.86ZM237.108 92.7V68.22H241.068V72.864L240.384 77.076L241.068 81.252V92.7H237.108ZM245.712 82.116C246.672 82.116 247.512 81.9 248.232 81.468C248.976 81.012 249.552 80.388 249.96 79.596C250.392 78.804 250.608 77.892 250.608 76.86C250.608 75.828 250.392 74.916 249.96 74.124C249.552 73.332 248.976 72.72 248.232 72.288C247.512 71.832 246.672 71.604 245.712 71.604C244.752 71.604 243.9 71.832 243.156 72.288C242.412 72.72 241.836 73.332 241.428 74.124C241.02 74.916 240.816 75.828 240.816 76.86C240.816 77.892 241.02 78.804 241.428 79.596C241.836 80.388 242.412 81.012 243.156 81.468C243.9 81.9 244.752 82.116 245.712 82.116ZM265.443 85.86C264.123 85.86 262.947 85.584 261.915 85.032C260.883 84.456 260.067 83.676 259.467 82.692C258.891 81.708 258.603 80.592 258.603 79.344V74.376C258.603 73.128 258.903 72.012 259.503 71.028C260.103 70.044 260.919 69.276 261.951 68.724C262.983 68.148 264.147 67.86 265.443 67.86C267.003 67.86 268.407 68.268 269.655 69.084C270.927 69.876 271.923 70.956 272.643 72.324C273.387 73.668 273.759 75.192 273.759 76.896C273.759 78.576 273.387 80.1 272.643 81.468C271.923 82.812 270.927 83.88 269.655 84.672C268.407 85.464 267.003 85.86 265.443 85.86ZM256.191 92.7V68.22H260.151V72.864L259.467 77.076L260.151 81.252V92.7H256.191ZM264.795 82.116C265.755 82.116 266.595 81.9 267.315 81.468C268.059 81.012 268.635 80.388 269.043 79.596C269.475 78.804 269.691 77.892 269.691 76.86C269.691 75.828 269.475 74.916 269.043 74.124C268.635 73.332 268.059 72.72 267.315 72.288C266.595 71.832 265.755 71.604 264.795 71.604C263.835 71.604 262.983 71.832 262.239 72.288C261.495 72.72 260.919 73.332 260.511 74.124C260.103 74.916 259.899 75.828 259.899 76.86C259.899 77.892 260.103 78.804 260.511 79.596C260.919 80.388 261.495 81.012 262.239 81.468C262.983 81.9 263.835 82.116 264.795 82.116Z" fill="white"/>
<defs>
<filter id="filter0_d_12_264" x="0.640015" y="0.280151" width="144.75" height="151.524" filterUnits="userSpaceOnUse" color-interpolation-filters="sRGB">
<feFlood flood-opacity="0" result="BackgroundImageFix"/>
<feColorMatrix in="SourceAlpha" type="matrix" values="0 0 0 0 0 0 0 0 0 0 0 0 0 0 0 0 0 0 127 0" result="hardAlpha"/>
<feOffset dy="4"/>
<feGaussianBlur stdDeviation="30"/>
<feColorMatrix type="matrix" values="0 0 0 0 0.898039 0 0 0 0 0.223529 0 0 0 0 0.207843 0 0 0 0.5 0"/>
<feBlend mode="normal" in2="BackgroundImageFix" result="effect1_dropShadow_12_264"/>
<feBlend mode="normal" in="SourceGraphic" in2="effect1_dropShadow_12_264" result="shape"/>
</filter>
</defs>
</svg>
