<svg width="154" height="32" viewBox="0 0 154 32" fill="none" xmlns="http://www.w3.org/2000/svg">
<path d="M0 7.5C0 3.35786 3.35786 0 7.5 0H24.5C28.6421 0 32 3.35786 32 7.5V24.5C32 28.6421 28.6421 32 24.5 32H7.5C3.35786 32 0 28.6421 0 24.5V7.5Z" fill="#E53935"/>
<g filter="url(#filter0_d_12_159)">
<path d="M16.0103 26.536C12.9821 26.5227 10.2168 24.9376 8.84935 22.4309C7.25065 19.6754 7.42204 16.3263 9.29484 13.7237L14.7428 6.16868C15.3664 5.30383 16.654 5.30389 17.2776 6.1688L22.7259 13.7257C24.5978 16.328 24.7691 19.676 23.1714 22.4309C21.8039 24.9376 19.0385 26.5227 16.0103 26.536Z" fill="white"/>
</g>
<path d="M23.1736 19.5859C21.8162 22.1004 19.0423 23.6885 16.0082 23.6885C12.974 23.6885 10.2001 22.1004 8.84272 19.5859C8.38093 18.7707 8.06476 17.8914 7.90631 16.9825C7.5383 18.869 7.86931 20.8154 8.84584 22.5057C10.2036 25.0197 12.9773 26.6075 16.0111 26.6075C19.0451 26.6075 21.8188 25.0197 23.1765 22.5057C24.152 20.8151 24.4819 18.8686 24.1129 16.9825C23.9536 17.8915 23.6363 18.7709 23.1736 19.5859Z" fill="#E9E9E9"/>
<path d="M16.756 18.927C16.756 19.4042 16.3692 19.7911 15.8919 19.7911C15.4147 19.7911 15.0279 19.4042 15.0279 18.927V18.046H14.1722C13.6903 18.046 13.2997 17.6553 13.2997 17.1734C13.2997 16.6915 13.6903 16.3008 14.1722 16.3008H15.0279V15.4198C15.0279 14.9426 15.4147 14.5557 15.8919 14.5557C16.3692 14.5557 16.756 14.9426 16.756 15.4198V16.3008H17.6117C18.0936 16.3008 18.4842 16.6915 18.4842 17.1734C18.4842 17.6553 18.0936 18.046 17.6117 18.046H16.756V18.927Z" fill="#E53935"/>
<path d="M45.72 25V22.6H50.544C51.392 22.6 52.048 22.336 52.512 21.808C52.976 21.28 53.208 20.672 53.208 19.984C53.208 19.52 53.104 19.088 52.896 18.688C52.688 18.288 52.384 17.968 51.984 17.728C51.584 17.488 51.104 17.368 50.544 17.368H45.72V14.968H50.136C50.856 14.968 51.432 14.784 51.864 14.416C52.296 14.048 52.512 13.504 52.512 12.784C52.512 12.064 52.296 11.52 51.864 11.152C51.432 10.784 50.856 10.6 50.136 10.6H45.72V8.2H50.208C51.344 8.2 52.288 8.408 53.04 8.824C53.792 9.24 54.352 9.776 54.72 10.432C55.088 11.088 55.272 11.792 55.272 12.544C55.272 13.424 55.024 14.2 54.528 14.872C54.048 15.544 53.336 16.088 52.392 16.504L52.608 15.64C53.664 16.072 54.488 16.68 55.08 17.464C55.672 18.248 55.968 19.168 55.968 20.224C55.968 21.088 55.752 21.88 55.32 22.6C54.904 23.32 54.28 23.904 53.448 24.352C52.632 24.784 51.624 25 50.424 25H45.72ZM43.824 25V8.2H46.584V25H43.824ZM57.1937 25V7.72H59.8337V25H57.1937ZM66.8518 25.24C65.7318 25.24 64.7158 24.976 63.8038 24.448C62.8918 23.904 62.1638 23.176 61.6198 22.264C61.0918 21.352 60.8278 20.336 60.8278 19.216C60.8278 18.096 61.0918 17.088 61.6198 16.192C62.1638 15.296 62.8918 14.584 63.8038 14.056C64.7158 13.512 65.7318 13.24 66.8518 13.24C67.9878 13.24 69.0118 13.504 69.9238 14.032C70.8358 14.56 71.5558 15.28 72.0838 16.192C72.6278 17.088 72.8998 18.096 72.8998 19.216C72.8998 20.336 72.6278 21.352 72.0838 22.264C71.5558 23.176 70.8358 23.904 69.9238 24.448C69.0118 24.976 67.9878 25.24 66.8518 25.24ZM66.8518 22.696C67.5078 22.696 68.0838 22.552 68.5798 22.264C69.0918 21.96 69.4838 21.544 69.7558 21.016C70.0438 20.488 70.1878 19.888 70.1878 19.216C70.1878 18.544 70.0438 17.952 69.7558 17.44C69.4678 16.928 69.0758 16.528 68.5798 16.24C68.0838 15.936 67.5078 15.784 66.8518 15.784C66.2118 15.784 65.6358 15.936 65.1238 16.24C64.6278 16.528 64.2358 16.928 63.9478 17.44C63.6758 17.952 63.5398 18.544 63.5398 19.216C63.5398 19.888 63.6758 20.488 63.9478 21.016C64.2358 21.544 64.6278 21.96 65.1238 22.264C65.6358 22.552 66.2118 22.696 66.8518 22.696ZM79.1753 25.24C78.0552 25.24 77.0392 24.976 76.1272 24.448C75.2152 23.904 74.4872 23.176 73.9432 22.264C73.4152 21.352 73.1512 20.336 73.1512 19.216C73.1512 18.096 73.4152 17.088 73.9432 16.192C74.4872 15.296 75.2152 14.584 76.1272 14.056C77.0392 13.512 78.0552 13.24 79.1753 13.24C80.3113 13.24 81.3353 13.504 82.2472 14.032C83.1593 14.56 83.8793 15.28 84.4072 16.192C84.9513 17.088 85.2233 18.096 85.2233 19.216C85.2233 20.336 84.9513 21.352 84.4072 22.264C83.8793 23.176 83.1593 23.904 82.2472 24.448C81.3353 24.976 80.3113 25.24 79.1753 25.24ZM79.1753 22.696C79.8313 22.696 80.4073 22.552 80.9032 22.264C81.4153 21.96 81.8073 21.544 82.0792 21.016C82.3672 20.488 82.5113 19.888 82.5113 19.216C82.5113 18.544 82.3672 17.952 82.0792 17.44C81.7912 16.928 81.3992 16.528 80.9032 16.24C80.4073 15.936 79.8313 15.784 79.1753 15.784C78.5352 15.784 77.9592 15.936 77.4472 16.24C76.9512 16.528 76.5592 16.928 76.2712 17.44C75.9992 17.952 75.8632 18.544 75.8632 19.216C75.8632 19.888 75.9992 20.488 76.2712 21.016C76.5592 21.544 76.9512 21.96 77.4472 22.264C77.9592 22.552 78.5352 22.696 79.1753 22.696ZM91.0427 25.24C90.0027 25.24 89.0587 24.976 88.2107 24.448C87.3787 23.92 86.7147 23.208 86.2187 22.312C85.7387 21.4 85.4987 20.384 85.4987 19.264C85.4987 18.128 85.7387 17.112 86.2187 16.216C86.7147 15.304 87.3787 14.584 88.2107 14.056C89.0587 13.512 90.0027 13.24 91.0427 13.24C91.9227 13.24 92.6987 13.432 93.3707 13.816C94.0587 14.184 94.6027 14.696 95.0027 15.352C95.4027 16.008 95.6027 16.752 95.6027 17.584V20.896C95.6027 21.728 95.4027 22.472 95.0027 23.128C94.6187 23.784 94.0827 24.304 93.3947 24.688C92.7067 25.056 91.9227 25.24 91.0427 25.24ZM91.4747 22.744C92.1307 22.744 92.6987 22.6 93.1787 22.312C93.6747 22.008 94.0587 21.592 94.3307 21.064C94.6027 20.536 94.7387 19.928 94.7387 19.24C94.7387 18.552 94.6027 17.944 94.3307 17.416C94.0587 16.888 93.6747 16.48 93.1787 16.192C92.6987 15.888 92.1307 15.736 91.4747 15.736C90.8347 15.736 90.2667 15.888 89.7707 16.192C89.2907 16.48 88.9067 16.888 88.6187 17.416C88.3467 17.944 88.2107 18.552 88.2107 19.24C88.2107 19.928 88.3467 20.536 88.6187 21.064C88.9067 21.592 89.2907 22.008 89.7707 22.312C90.2667 22.6 90.8347 22.744 91.4747 22.744ZM97.2107 25H94.5707V21.904L95.0267 19.096L94.5707 16.312V7.72H97.2107V25ZM102.661 25.12L97.7406 13.48H100.645L104.005 22.024H103.165L106.717 13.48H109.645L104.293 25.12H102.661ZM99.2286 29.8L102.805 22.432L104.293 25.12L102.157 29.8H99.2286ZM112.199 25L119.111 8.2H121.031L127.895 25H124.919L119.543 11.392H120.551L115.127 25H112.199ZM115.607 21.76V19.36H124.511V21.76H115.607ZM134.907 25.24C134.027 25.24 133.243 25.056 132.555 24.688C131.867 24.304 131.323 23.784 130.923 23.128C130.539 22.472 130.347 21.728 130.347 20.896V17.584C130.347 16.752 130.547 16.008 130.947 15.352C131.347 14.696 131.891 14.184 132.579 13.816C133.267 13.432 134.043 13.24 134.907 13.24C135.947 13.24 136.883 13.512 137.715 14.056C138.563 14.584 139.227 15.304 139.707 16.216C140.203 17.112 140.451 18.128 140.451 19.264C140.451 20.384 140.203 21.4 139.707 22.312C139.227 23.208 138.563 23.92 137.715 24.448C136.883 24.976 135.947 25.24 134.907 25.24ZM128.739 29.8V13.48H131.379V16.576L130.923 19.384L131.379 22.168V29.8H128.739ZM134.475 22.744C135.115 22.744 135.675 22.6 136.155 22.312C136.651 22.008 137.035 21.592 137.307 21.064C137.595 20.536 137.739 19.928 137.739 19.24C137.739 18.552 137.595 17.944 137.307 17.416C137.035 16.888 136.651 16.48 136.155 16.192C135.675 15.888 135.115 15.736 134.475 15.736C133.835 15.736 133.267 15.888 132.771 16.192C132.275 16.48 131.891 16.888 131.619 17.416C131.347 17.944 131.211 18.552 131.211 19.24C131.211 19.928 131.347 20.536 131.619 21.064C131.891 21.592 132.275 22.008 132.771 22.312C133.267 22.6 133.835 22.744 134.475 22.744ZM147.629 25.24C146.749 25.24 145.965 25.056 145.277 24.688C144.589 24.304 144.045 23.784 143.645 23.128C143.261 22.472 143.069 21.728 143.069 20.896V17.584C143.069 16.752 143.269 16.008 143.669 15.352C144.069 14.696 144.613 14.184 145.301 13.816C145.989 13.432 146.765 13.24 147.629 13.24C148.669 13.24 149.605 13.512 150.437 14.056C151.285 14.584 151.949 15.304 152.429 16.216C152.925 17.112 153.173 18.128 153.173 19.264C153.173 20.384 152.925 21.4 152.429 22.312C151.949 23.208 151.285 23.92 150.437 24.448C149.605 24.976 148.669 25.24 147.629 25.24ZM141.461 29.8V13.48H144.101V16.576L143.645 19.384L144.101 22.168V29.8H141.461ZM147.197 22.744C147.837 22.744 148.397 22.6 148.877 22.312C149.373 22.008 149.757 21.592 150.029 21.064C150.317 20.536 150.461 19.928 150.461 19.24C150.461 18.552 150.317 17.944 150.029 17.416C149.757 16.888 149.373 16.48 148.877 16.192C148.397 15.888 147.837 15.736 147.197 15.736C146.557 15.736 145.989 15.888 145.493 16.192C144.997 16.48 144.613 16.888 144.341 17.416C144.069 17.944 143.933 18.552 143.933 19.24C143.933 19.928 144.069 20.536 144.341 21.064C144.613 21.592 144.997 22.008 145.493 22.312C145.989 22.6 146.557 22.744 147.197 22.744Z" fill="white"/>
<defs>
<filter id="filter0_d_12_159" x="-52.24" y="-50.4799" width="136.5" height="141.016" filterUnits="userSpaceOnUse" color-interpolation-filters="sRGB">
<feFlood flood-opacity="0" result="BackgroundImageFix"/>
<feColorMatrix in="SourceAlpha" type="matrix" values="0 0 0 0 0 0 0 0 0 0 0 0 0 0 0 0 0 0 127 0" result="hardAlpha"/>
<feOffset dy="4"/>
<feGaussianBlur stdDeviation="30"/>
<feColorMatrix type="matrix" values="0 0 0 0 0.898039 0 0 0 0 0.223529 0 0 0 0 0.207843 0 0 0 0.5 0"/>
<feBlend mode="normal" in2="BackgroundImageFix" result="effect1_dropShadow_12_159"/>
<feBlend mode="normal" in="SourceGraphic" in2="effect1_dropShadow_12_159" result="shape"/>
</filter>
</defs>
</svg>
